<svg width="36" height="36" fill="none" xmlns="http://www.w3.org/2000/svg"><path d="M17.997 4.708c-5.447 0-10.619-.484-12.594 4.586-.816 2.094-.698 4.813-.698 8.707 0 3.417-.109 6.629.698 8.706 1.971 5.073 7.185 4.587 12.591 4.587 5.215 0 10.593.543 12.593-4.587.817-2.115.697-4.794.697-8.706 0-5.193.287-8.545-2.232-11.062-2.55-2.55-5.998-2.23-11.061-2.23h.006zm-1.191 2.396c11.361-.018 12.807-1.281 12.009 16.264-.284 6.206-5.009 5.525-10.817 5.525-10.59 0-10.894-.303-10.894-10.898 0-10.717.84-10.885 9.702-10.894v.003zm8.286 2.206a1.595 1.595 0 100 3.19 1.595 1.595 0 000-3.19zm-7.095 1.865a6.826 6.826 0 000 13.651 6.824 6.824 0 006.823-6.825 6.825 6.825 0 00-6.823-6.826zm0 2.395c5.858 0 5.865 8.862 0 8.862-5.856 0-5.865-8.862 0-8.862z" fill="#fff"/></svg>