<svg width="50" height="50" fill="none" xmlns="http://www.w3.org/2000/svg"><path d="M34.873 26.042c-.581-.735-.415-1.062 0-1.719.008-.008 4.813-6.646 5.308-8.898l.003-.002c.246-.82 0-1.423-1.19-1.423h-3.936c-1.002 0-1.464.518-1.712 1.097 0 0-2.004 4.796-4.839 7.906-.915.898-1.338 1.186-1.837 1.186-.246 0-.629-.288-.629-1.108v-7.657c0-.984-.28-1.424-1.11-1.424h-6.189c-.629 0-1.002.459-1.002.886 0 .934 1.418 1.148 1.565 3.773v5.696c0 1.247-.227 1.477-.73 1.477-1.338 0-4.585-4.817-6.51-10.329-.388-1.07-.768-1.502-1.777-1.502H6.35c-1.123 0-1.35.518-1.35 1.097 0 1.023 1.338 6.11 6.222 12.83C14.477 32.514 19.062 35 23.232 35c2.506 0 2.812-.552 2.812-1.502 0-4.382-.226-4.796 1.03-4.796.581 0 1.583.287 3.923 2.5C33.672 33.825 34.111 35 35.61 35h3.936c1.122 0 1.69-.552 1.363-1.641-.748-2.29-5.806-7.002-6.035-7.317z" fill="#fff"/></svg>